<svg width="92" height="92" viewBox="0 0 92 92" fill="none" xmlns="http://www.w3.org/2000/svg">
<g filter="url(#filter0_d_2959_4716)">
<g clip-path="url(#clip0_2959_4716)">
<path d="M86 6H6V86H86V6Z" fill="#F3EDEC"/>
<mask id="mask0_2959_4716" style="mask-type:luminance" maskUnits="userSpaceOnUse" x="6" y="6" width="80" height="80">
<path d="M71 6H21C12.7157 6 6 12.7157 6 21V71C6 79.2843 12.7157 86 21 86H71C79.2843 86 86 79.2843 86 71V21C86 12.7157 79.2843 6 71 6Z" fill="white"/>
</mask>
<g mask="url(#mask0_2959_4716)">
<path d="M39.6276 21.8204C49.0119 31.3235 49.8151 42.6407 49.6385 47.6563C49.5994 48.7798 48.2979 49.3001 47.5229 48.5032C44.0448 44.9219 37.0354 36.0048 37.5135 22.6766C37.5541 21.5563 38.8479 21.0329 39.626 21.8219L39.6276 21.8204Z" fill="#EB5B5E"/>
<path d="M46.1216 17.2751C40.6356 30.7142 44.1887 42.511 46.2419 47.4532C46.6794 48.5048 48.1059 48.5048 48.5263 47.4532C50.5106 42.4814 53.9403 30.5985 48.4028 17.2845C47.9669 16.236 46.5481 16.2298 46.12 17.2751H46.1216Z" fill="#DB485A"/>
<path d="M53.6568 22.3249C43.7037 33.7531 43.8287 46.7968 44.3427 51.8843C44.4365 52.8124 45.538 53.1859 46.1349 52.4937C49.4255 48.6718 56.9412 38.1249 55.4318 22.9374C55.3412 22.0312 54.2427 21.6531 53.6568 22.3265V22.3249Z" fill="#EB5B5E"/>
<path d="M71.6856 57.3111C69.7341 55.1877 67.52 53.3111 65.0809 51.7501C64.1262 51.1392 63.2341 50.4564 62.395 49.722C58.1497 46.0017 55.4637 40.8033 55.12 35.1283C55.12 35.1283 55.1403 34.608 54.8481 34.4548C54.5731 34.3111 54.1731 34.7314 54.1731 34.7314L50.0825 38.5502C49.9169 38.7048 49.6544 38.6861 49.5106 38.5095L46.1903 34.3908C46.0028 34.158 45.6356 34.2033 45.5106 34.4767L43.7466 38.3361C43.6262 38.5986 43.2747 38.6502 43.0856 38.433L39.5262 34.3767C39.5262 34.3767 39.3794 34.2033 39.2247 34.2611C39.0747 34.3158 39.0841 34.5251 39.0841 34.5251C38.9044 40.4501 36.2309 45.9923 31.7809 49.7923C31.02 50.4423 30.2122 51.0486 29.3497 51.5892C26.8137 53.1814 24.5091 55.1064 22.4919 57.3017C16.5669 63.7439 13.1387 72.5158 13.7497 82.0923C14.445 92.9845 20.4809 102.531 29.2387 108.111C33.8169 111.028 39.1387 112.861 44.8325 113.235C45.4684 113.277 46.1012 113.299 46.7294 113.305C46.9716 113.308 47.2091 113.297 47.4497 113.295C53.87 113.227 59.8544 111.355 64.9184 108.15C74.2778 102.23 80.495 91.7939 80.495 79.9002C80.495 71.1861 77.1497 63.2611 71.6841 57.3142L71.6856 57.3111Z" fill="#246E74"/>
<path d="M64.9313 108.147C74.2906 102.227 80.5078 91.7907 80.5078 79.897C80.5078 71.1829 77.1625 63.2579 71.6969 57.311C72.4016 61.8642 72.7703 66.5282 72.7703 71.2798C72.7703 84.4126 69.9547 96.8813 64.9297 108.147H64.9313Z" fill="#4F898F"/>
<path d="M65.0932 51.7503C64.1385 51.1394 63.2447 50.4565 62.4072 49.7222C62.4275 50.68 62.4432 51.6394 62.4432 52.6019C62.4432 74.519 57.0229 95.1675 47.4619 113.292C53.8807 113.224 59.8666 111.35 64.9307 108.147C69.9557 96.8815 72.7713 84.4128 72.7713 71.28C72.7713 66.5284 72.401 61.8644 71.6979 57.3112C69.7463 55.1878 67.5322 53.3112 65.0932 51.7503Z" fill="#3B7C82"/>
<path d="M24.8555 73.0206C24.8555 73.0206 33.2195 82.6581 43.993 73.0206C34.4242 62.2581 24.8555 73.0206 24.8555 73.0206Z" fill="#F3EDEC"/>
<path d="M38.8131 76.3782C38.8193 76.286 38.8412 76.197 38.8412 76.1032C38.8412 73.6642 36.8631 71.686 34.424 71.686C31.985 71.686 30.0068 73.6642 30.0068 76.1032C30.0068 76.2454 30.035 76.3798 30.049 76.5188C32.3865 77.4142 35.3928 77.7735 38.8146 76.3782H38.8131Z" fill="#1D1E1C"/>
<path d="M51.002 73.0206C51.002 73.0206 59.366 82.6581 70.1395 73.0206C60.5707 62.2581 51.002 73.0206 51.002 73.0206Z" fill="#F3EDEC"/>
<path d="M64.9615 76.3738C64.9678 76.2816 64.9896 76.1926 64.9896 76.0988C64.9896 73.6598 63.0115 71.6816 60.5725 71.6816C58.1334 71.6816 56.1553 73.6598 56.1553 76.0988C56.1553 76.241 56.1834 76.3754 56.1975 76.5145C58.535 77.4098 61.5412 77.7691 64.9631 76.3738H64.9615Z" fill="#1D1E1C"/>
</g>
</g>
</g>
<defs>
<filter id="filter0_d_2959_4716" x="0" y="0" width="92" height="92" filterUnits="userSpaceOnUse" color-interpolation-filters="sRGB">
<feFlood flood-opacity="0" result="BackgroundImageFix"/>
<feColorMatrix in="SourceAlpha" type="matrix" values="0 0 0 0 0 0 0 0 0 0 0 0 0 0 0 0 0 0 127 0" result="hardAlpha"/>
<feOffset/>
<feGaussianBlur stdDeviation="3"/>
<feComposite in2="hardAlpha" operator="out"/>
<feColorMatrix type="matrix" values="0 0 0 0 0 0 0 0 0 0 0 0 0 0 0 0 0 0 0.25 0"/>
<feBlend mode="normal" in2="BackgroundImageFix" result="effect1_dropShadow_2959_4716"/>
<feBlend mode="normal" in="SourceGraphic" in2="effect1_dropShadow_2959_4716" result="shape"/>
</filter>
<clipPath id="clip0_2959_4716">
<rect x="6" y="6" width="80" height="80" rx="19" fill="white"/>
</clipPath>
</defs>
</svg>
